<svg width="254" height="253" viewBox="0 0 254 253" fill="none" xmlns="http://www.w3.org/2000/svg">
<rect x="1" y="0.5" width="252" height="252" rx="9.5" stroke="#8BD8BD"/>
<rect opacity="0.8" width="4" height="4" rx="2" transform="matrix(-1 0 0 1 226.5 181)" fill="#5EA6F8" fill-opacity="0.5"/>
<rect opacity="0.8" width="4" height="4" rx="2" transform="matrix(-1 0 0 1 218.5 181)" fill="#5EA6F8" fill-opacity="0.5"/>
<rect opacity="0.8" width="4" height="4" rx="2" transform="matrix(-1 0 0 1 226.5 197)" fill="#5EA6F8" fill-opacity="0.5"/>
<rect opacity="0.8" width="4" height="4" rx="2" transform="matrix(-1 0 0 1 218.5 197)" fill="#5EA6F8" fill-opacity="0.5"/>
<rect opacity="0.8" width="4" height="4" rx="2" transform="matrix(-1 0 0 1 226.5 213)" fill="#5EA6F8" fill-opacity="0.5"/>
<rect opacity="0.8" width="4" height="4" rx="2" transform="matrix(-1 0 0 1 218.5 213)" fill="#5EA6F8" fill-opacity="0.5"/>
<rect opacity="0.8" width="4" height="4" rx="2" transform="matrix(-1 0 0 1 210.5 213)" fill="#5EA6F8" fill-opacity="0.5"/>
<rect opacity="0.8" width="4" height="4" rx="2" transform="matrix(-1 0 0 1 202.5 213)" fill="#5EA6F8" fill-opacity="0.5"/>
<rect opacity="0.8" width="4" height="4" rx="2" transform="matrix(-1 0 0 1 194.5 213)" fill="#5EA6F8" fill-opacity="0.5"/>
<rect opacity="0.8" width="4" height="4" rx="2" transform="matrix(-1 0 0 1 186.5 213)" fill="#5EA6F8" fill-opacity="0.5"/>
<rect opacity="0.8" width="4" height="4" rx="2" transform="matrix(-1 0 0 1 178.5 213)" fill="#5EA6F8" fill-opacity="0.5"/>
<rect opacity="0.8" width="4" height="4" rx="2" transform="matrix(-1 0 0 1 170.5 213)" fill="#5EA6F8" fill-opacity="0.5"/>
<rect opacity="0.8" width="4" height="4" rx="2" transform="matrix(-1 0 0 1 162.5 213)" fill="#5EA6F8" fill-opacity="0.5"/>
<rect opacity="0.8" width="4" height="4" rx="2" transform="matrix(-1 0 0 1 154.5 213)" fill="#5EA6F8" fill-opacity="0.5"/>
<rect opacity="0.8" width="4" height="4" rx="2" transform="matrix(-1 0 0 1 146.5 213)" fill="#5EA6F8" fill-opacity="0.5"/>
<rect opacity="0.8" width="4" height="4" rx="2" transform="matrix(-1 0 0 1 138.5 213)" fill="#5EA6F8" fill-opacity="0.5"/>
<rect opacity="0.8" width="4" height="4" rx="2" transform="matrix(-1 0 0 1 226.5 173)" fill="#5EA6F8" fill-opacity="0.5"/>
<rect opacity="0.8" width="4" height="4" rx="2" transform="matrix(-1 0 0 1 218.5 173)" fill="#5EA6F8" fill-opacity="0.5"/>
<rect opacity="0.8" width="4" height="4" rx="2" transform="matrix(-1 0 0 1 226.5 189)" fill="#5EA6F8" fill-opacity="0.5"/>
<rect opacity="0.8" width="4" height="4" rx="2" transform="matrix(-1 0 0 1 218.5 189)" fill="#5EA6F8" fill-opacity="0.5"/>
<rect opacity="0.8" width="4" height="4" rx="2" transform="matrix(-1 0 0 1 226.5 205)" fill="#5EA6F8" fill-opacity="0.5"/>
<rect opacity="0.8" width="4" height="4" rx="2" transform="matrix(-1 0 0 1 218.5 205)" fill="#5EA6F8" fill-opacity="0.5"/>
<rect opacity="0.8" width="4" height="4" rx="2" transform="matrix(-1 0 0 1 226.5 221)" fill="#5EA6F8" fill-opacity="0.5"/>
<rect opacity="0.8" width="4" height="4" rx="2" transform="matrix(-1 0 0 1 218.5 221)" fill="#5EA6F8" fill-opacity="0.5"/>
<rect opacity="0.8" width="4" height="4" rx="2" transform="matrix(-1 0 0 1 210.5 221)" fill="#5EA6F8" fill-opacity="0.5"/>
<rect opacity="0.8" width="4" height="4" rx="2" transform="matrix(-1 0 0 1 202.5 221)" fill="#5EA6F8" fill-opacity="0.5"/>
<rect opacity="0.8" width="4" height="4" rx="2" transform="matrix(-1 0 0 1 194.5 221)" fill="#5EA6F8" fill-opacity="0.5"/>
<rect opacity="0.8" width="4" height="4" rx="2" transform="matrix(-1 0 0 1 186.5 221)" fill="#5EA6F8" fill-opacity="0.5"/>
<rect opacity="0.8" width="4" height="4" rx="2" transform="matrix(-1 0 0 1 178.5 221)" fill="#5EA6F8" fill-opacity="0.5"/>
<rect opacity="0.8" width="4" height="4" rx="2" transform="matrix(-1 0 0 1 170.5 221)" fill="#5EA6F8" fill-opacity="0.5"/>
<rect opacity="0.8" width="4" height="4" rx="2" transform="matrix(-1 0 0 1 162.5 221)" fill="#5EA6F8" fill-opacity="0.5"/>
<rect opacity="0.8" width="4" height="4" rx="2" transform="matrix(-1 0 0 1 154.5 221)" fill="#5EA6F8" fill-opacity="0.5"/>
<rect opacity="0.8" width="4" height="4" rx="2" transform="matrix(-1 0 0 1 146.5 221)" fill="#5EA6F8" fill-opacity="0.5"/>
<rect opacity="0.8" width="4" height="4" rx="2" transform="matrix(-1 0 0 1 138.5 221)" fill="#5EA6F8" fill-opacity="0.5"/>
</svg>
