<svg width="109" height="92" viewBox="0 0 109 92" fill="none" xmlns="http://www.w3.org/2000/svg">
<rect opacity="0.8" x="16.5" y="8" width="4" height="4" rx="2" fill="#5EA6F8" fill-opacity="0.5"/>
<rect opacity="0.8" x="24.5" y="8" width="4" height="4" rx="2" fill="#5EA6F8" fill-opacity="0.5"/>
<rect opacity="0.8" x="32.5" y="8" width="4" height="4" rx="2" fill="#5EA6F8" fill-opacity="0.5"/>
<rect opacity="0.8" x="40.5" y="8" width="4" height="4" rx="2" fill="#5EA6F8" fill-opacity="0.5"/>
<rect opacity="0.8" x="48.5" y="8" width="4" height="4" rx="2" fill="#5EA6F8" fill-opacity="0.5"/>
<rect opacity="0.8" x="56.5" y="8" width="4" height="4" rx="2" fill="#5EA6F8" fill-opacity="0.5"/>
<rect opacity="0.8" x="64.5" y="8" width="4" height="4" rx="2" fill="#5EA6F8" fill-opacity="0.5"/>
<rect opacity="0.8" x="72.5" y="8" width="4" height="4" rx="2" fill="#5EA6F8" fill-opacity="0.5"/>
<rect opacity="0.8" x="80.5" y="8" width="4" height="4" rx="2" fill="#5EA6F8" fill-opacity="0.5"/>
<rect opacity="0.8" x="88.5" y="8" width="4" height="4" rx="2" fill="#5EA6F8" fill-opacity="0.5"/>
<rect opacity="0.8" x="96.5" y="8" width="4" height="4" rx="2" fill="#5EA6F8" fill-opacity="0.5"/>
<rect opacity="0.8" x="104.5" y="8" width="4" height="4" rx="2" fill="#5EA6F8" fill-opacity="0.5"/>
<rect opacity="0.8" x="0.5" y="92" width="4" height="4" rx="2" transform="rotate(-90 0.5 92)" fill="#5EA6F8" fill-opacity="0.5"/>
<rect opacity="0.8" x="0.5" y="84" width="4" height="4" rx="2" transform="rotate(-90 0.5 84)" fill="#5EA6F8" fill-opacity="0.5"/>
<rect opacity="0.8" x="0.5" y="76" width="4" height="4" rx="2" transform="rotate(-90 0.5 76)" fill="#5EA6F8" fill-opacity="0.5"/>
<rect opacity="0.8" x="0.5" y="68" width="4" height="4" rx="2" transform="rotate(-90 0.5 68)" fill="#5EA6F8" fill-opacity="0.5"/>
<rect opacity="0.8" x="0.5" y="60" width="4" height="4" rx="2" transform="rotate(-90 0.5 60)" fill="#5EA6F8" fill-opacity="0.5"/>
<rect opacity="0.8" x="0.5" y="52" width="4" height="4" rx="2" transform="rotate(-90 0.5 52)" fill="#5EA6F8" fill-opacity="0.5"/>
<rect opacity="0.8" x="0.5" y="44" width="4" height="4" rx="2" transform="rotate(-90 0.5 44)" fill="#5EA6F8" fill-opacity="0.5"/>
<rect opacity="0.8" x="0.5" y="36" width="4" height="4" rx="2" transform="rotate(-90 0.5 36)" fill="#5EA6F8" fill-opacity="0.5"/>
<rect opacity="0.8" x="0.5" y="28" width="4" height="4" rx="2" transform="rotate(-90 0.5 28)" fill="#5EA6F8" fill-opacity="0.5"/>
<rect opacity="0.8" x="0.5" y="20" width="4" height="4" rx="2" transform="rotate(-90 0.5 20)" fill="#5EA6F8" fill-opacity="0.5"/>
<rect opacity="0.8" x="0.5" y="12" width="4" height="4" rx="2" transform="rotate(-90 0.5 12)" fill="#5EA6F8" fill-opacity="0.5"/>
<rect opacity="0.8" x="0.5" y="4" width="4" height="4" rx="2" transform="rotate(-90 0.5 4)" fill="#5EA6F8" fill-opacity="0.5"/>
<rect opacity="0.8" x="16.5" width="4" height="4" rx="2" fill="#5EA6F8" fill-opacity="0.5"/>
<rect opacity="0.8" x="24.5" width="4" height="4" rx="2" fill="#5EA6F8" fill-opacity="0.5"/>
<rect opacity="0.8" x="32.5" width="4" height="4" rx="2" fill="#5EA6F8" fill-opacity="0.5"/>
<rect opacity="0.8" x="40.5" width="4" height="4" rx="2" fill="#5EA6F8" fill-opacity="0.5"/>
<rect opacity="0.8" x="48.5" width="4" height="4" rx="2" fill="#5EA6F8" fill-opacity="0.5"/>
<rect opacity="0.8" x="56.5" width="4" height="4" rx="2" fill="#5EA6F8" fill-opacity="0.5"/>
<rect opacity="0.8" x="64.5" width="4" height="4" rx="2" fill="#5EA6F8" fill-opacity="0.5"/>
<rect opacity="0.8" x="72.5" width="4" height="4" rx="2" fill="#5EA6F8" fill-opacity="0.5"/>
<rect opacity="0.8" x="80.5" width="4" height="4" rx="2" fill="#5EA6F8" fill-opacity="0.5"/>
<rect opacity="0.8" x="88.5" width="4" height="4" rx="2" fill="#5EA6F8" fill-opacity="0.5"/>
<rect opacity="0.8" x="96.5" width="4" height="4" rx="2" fill="#5EA6F8" fill-opacity="0.5"/>
<rect opacity="0.8" x="104.5" width="4" height="4" rx="2" fill="#5EA6F8" fill-opacity="0.5"/>
<rect opacity="0.8" x="8.5" y="92" width="4" height="4" rx="2" transform="rotate(-90 8.5 92)" fill="#5EA6F8" fill-opacity="0.5"/>
<rect opacity="0.8" x="8.5" y="84" width="4" height="4" rx="2" transform="rotate(-90 8.5 84)" fill="#5EA6F8" fill-opacity="0.5"/>
<rect opacity="0.8" x="8.5" y="76" width="4" height="4" rx="2" transform="rotate(-90 8.5 76)" fill="#5EA6F8" fill-opacity="0.5"/>
<rect opacity="0.8" x="8.5" y="68" width="4" height="4" rx="2" transform="rotate(-90 8.5 68)" fill="#5EA6F8" fill-opacity="0.5"/>
<rect opacity="0.8" x="8.5" y="60" width="4" height="4" rx="2" transform="rotate(-90 8.5 60)" fill="#5EA6F8" fill-opacity="0.5"/>
<rect opacity="0.8" x="8.5" y="52" width="4" height="4" rx="2" transform="rotate(-90 8.5 52)" fill="#5EA6F8" fill-opacity="0.5"/>
<rect opacity="0.8" x="8.5" y="44" width="4" height="4" rx="2" transform="rotate(-90 8.5 44)" fill="#5EA6F8" fill-opacity="0.5"/>
<rect opacity="0.8" x="8.5" y="36" width="4" height="4" rx="2" transform="rotate(-90 8.5 36)" fill="#5EA6F8" fill-opacity="0.5"/>
<rect opacity="0.8" x="8.5" y="28" width="4" height="4" rx="2" transform="rotate(-90 8.5 28)" fill="#5EA6F8" fill-opacity="0.5"/>
<rect opacity="0.8" x="8.5" y="20" width="4" height="4" rx="2" transform="rotate(-90 8.5 20)" fill="#5EA6F8" fill-opacity="0.5"/>
<rect opacity="0.8" x="8.5" y="12" width="4" height="4" rx="2" transform="rotate(-90 8.5 12)" fill="#5EA6F8" fill-opacity="0.5"/>
<rect opacity="0.8" x="8.5" y="4" width="4" height="4" rx="2" transform="rotate(-90 8.5 4)" fill="#5EA6F8" fill-opacity="0.5"/>
</svg>
