<svg width="41" height="36" viewBox="0 0 41 36" fill="none" xmlns="http://www.w3.org/2000/svg">
<g clip-path="url(#clip0_16_31)">
<path d="M20.4928 36C18.5797 32.6344 16.6667 29.2687 14.7246 25.8593C15.5725 25.8593 16.3913 25.8593 17.2101 25.8593C18.1884 25.8593 19.1667 25.8374 20.1449 25.8739C20.4638 25.8812 20.6014 25.7425 20.7319 25.5161C21.3333 24.4356 21.9275 23.3478 22.529 22.2673C23.1014 21.2452 23.6739 20.2304 24.2681 19.2156C24.8913 18.1424 25.5435 17.0911 26.1667 16.0179C26.5652 15.3316 26.9203 14.6161 27.3043 13.9298C27.7609 13.1195 28.2391 12.3164 28.7029 11.506C29.1812 10.6591 29.6522 9.80491 30.1304 8.96533C30.5 8.31556 30.8913 7.67309 31.2681 7.01603C31.6232 6.40276 31.9565 5.7749 32.3116 5.16163C32.7971 4.32205 33.2971 3.49706 33.7826 2.65748C34.2464 1.85439 34.6812 1.03671 35.1449 0.233628C35.2029 0.131417 35.3768 0.0292065 35.4927 0.0292065C37.3043 0.014605 39.1159 0.0219058 41.0145 0.0219058C34.1522 12.0316 27.3261 24.0049 20.4928 36Z" fill="#8BD8BD"/>
<path d="M19.3623 13.813C17.4348 17.1932 15.5435 20.5224 13.6159 23.9099C9.07971 15.9521 4.55797 8.01619 0 0.0145703C0.195652 0.0145703 0.326087 0.0145703 0.449275 0.0145703C2.07971 0.0145703 3.71014 0.0291718 5.34058 -3.11817e-05C5.66667 -0.00733193 5.84783 0.116781 5.97826 0.357706C6.42754 1.16809 6.84783 1.99307 7.30435 2.79616C7.78986 3.64304 8.31159 4.46803 8.78986 5.31492C9.18116 6.00119 9.52174 6.70936 9.91304 7.39563C10.2464 7.97239 10.6232 8.52725 10.9565 9.10401C11.2029 9.52745 11.4058 9.9728 11.6449 10.4035C12.2246 11.4475 12.8188 12.4843 13.4058 13.521C13.5217 13.7327 13.6739 13.8349 13.9348 13.8276C15.7174 13.8057 17.4928 13.813 19.3623 13.813Z" fill="#8BD8BD"/>
<path d="M26.9565 0.0291971C26.6522 0.532949 26.3551 0.985595 26.087 1.45284C25.6377 2.24132 25.2102 3.03711 24.7681 3.82559C24.2392 4.76738 23.7174 5.70918 23.1739 6.64368C23.1087 6.75319 22.942 6.87 22.8189 6.87C21.2754 6.8846 19.7247 6.8919 18.1812 6.8627C18.0362 6.8627 17.8551 6.69478 17.7681 6.54877C17.1667 5.54856 16.5797 4.54106 16.0073 3.52626C15.4638 2.56986 14.9493 1.59886 14.4203 0.635159C14.3116 0.438039 14.1884 0.240919 14.058 0.0218964C18.3478 0.0291971 22.6087 0.0291971 26.9565 0.0291971Z" fill="#8BD8BD"/>
</g>
<defs>
<clipPath id="clip0_16_31">
<rect width="41" height="36" fill="white"/>
</clipPath>
</defs>
</svg>
